# xmcd
#
# Track frame offsets:
#	150
#	21283
#	42603
#	66721
#	82815
#	100036
#	123473
#	142616
#	164808
#	186035
#	205229
#	223982
#	239886
#	259406
#	277682
#
# Disc length: 3948 seconds
#
# Revision: 2
# Processed by: cddbd v1.5.2PL0 Copyright (c) Steve Scherf et al.
# Submitted via: EasyCDDAExtractor 15.3.0.1
#
DISCID=e80f6a0f
DTITLE=Varios Artistas - People En Español - Exitos De La Musica Pop
DYEAR=2002
DGENRE=Latin
TTITLE0=Alejandro Sanz - Quisiera Ser
TTITLE1=Chayanne - Dejaria Todo
TTITLE2=Mana - No Ha Parado De Llover
TTITLE3=Christian Castro - Mi Vida Sin Tu Amor
TTITLE4=Laura Pausini - Entre Tu Y Mil Mares
TTITLE5=Bacilos - Tabaco Y Chanel
TTITLE6=Paulina Rubio - Y Yo Sigo Aqui
TTITLE7=Olga Tañon - Como Olvidar
TTITLE8=Ednita Nazario and Ricardo Arjona - Porque Hablamos
TTITLE9=Ricardo Montaner - La Clave Del Amor
TTITLE10=OV7 - Enloqueceme
TTITLE11=Son By Four - A Puro Dolor
TTITLE12=Nek - La Vida Es
TTITLE13=Ricky Martin - Livin' La Vida Loca
TTITLE14=Luis Fonsi - Imaginame Sin Ti
EXTD=
EXTT0=
EXTT1=
EXTT2=
EXTT3=
EXTT4=
EXTT5=
EXTT6=
EXTT7=
EXTT8=
EXTT9=
EXTT10=
EXTT11=
EXTT12=
EXTT13=
EXTT14=
PLAYORDER=
